<svg xmlns="http://www.w3.org/2000/svg" xmlns:xlink="http://www.w3.org/1999/xlink" width="685" height="233" viewBox="0 0 685 233">
    <defs>
        <path id="a" d="M0 16.913V.95h15.966v15.963H0z"/>
    </defs>
    <g fill="none" fill-rule="evenodd" opacity=".5">
        <path fill="#D4C9B4" d="M288.753 107.537c-1.609 0-10.03-5.684-9.015-8.047.969-2.255 58.919-1.615 59.236-.323.323 1.286-48.612 8.37-50.22 8.37m-33.891-17.363c0-.669 5.218-1.989 9.23-4.618 3.916-2.561 6.607-6.432 7.587-6.596 1.978-.329 11.871.992 11.209 2.64-2.035 5.095.662 7.582 5.275 7.582 4.618 0 10.222-3.955 11.214-3.955.986 0 10.88 3.298 10.88 4.618 0 1.315-55.395 2.012-55.395.33m7.49 23.159c-1.609.963-12.88-11.271-12.556-12.558.646-2.578 12.234-1.609 13.52-1.609 1.292 0 8.375 10.625 7.729 11.588-.646.97-7.083 1.61-8.692 2.579m-28.973 4.505c-1.615 0-19.685-16.672-18.676-18.349.969-1.615 23.504-.323 24.144.963.646 1.287-1.609 3.542-1.609 4.828 0 1.292 10.302 8.693 9.338 10.625-.963 1.933-11.587 1.933-13.197 1.933m-25.113 5.15c-2.255 0-5.797-3.218-11.594-7.083-5.79-3.864-19.957-15.776-19.957-17.385 0-2.255 16.099.323 17.708.323 1.61 0 5.23 4.42 8.692 7.73 7.083 6.76 20.603 11.265 19.957 13.197-.64 1.932-12.55 3.219-14.806 3.219m-19.096 3.371c-4.204 1.224-17.44-11.43-16.478-13.135 0 0 20.683 11.917 16.478 13.135m-23.34-41.134c-1.643-.991-.657-12.857 1.32-21.102 1.978-8.245 19.125-7.588 19.125-3.627 0 3.955-17.22 26.662-20.445 24.73m40.889-21.766c0 1.983-16.818 24.406-18.795 26.055-1.978 1.643-9.35 2.317-9.56 0-.328-3.632 19.782-24.072 22.094-26.384 2.306-2.306 6.261-1.649 6.261.329m12.863 2.969c1.977-.657 11.208.992 11.208 2.97 0 1.977-15.17 19.124-16.484 20.773-1.32 1.65-15.282 1.706-15.497-.657-.335-3.632 18.79-22.429 20.773-23.086m27.034 6.925c1.32-1.32 8.902 0 9.565 1.649.657 1.649-13.849 14.512-16.16 15.826-2.307 1.32-13.85 1.757-13.85-.328 0-2.97 19.125-15.827 20.445-17.147m140.47 26.05c.657-3.628-19.85-4.988-43.858-10.552-22.75-5.276-91.994-24.072-111.447-30.334-19.458-6.267-51.439-12.863-61.004-12.863-9.56 0-15.497 11.543-16.483 23.08-.992 11.543-1.65 19.13-7.916 20.117-4.596.725-37.772-.47-58.364-1.65-7.485-.43-13.888-5.031-15.826-3.626-2.148 1.564-8.902 11.872 5.938 13.85 14.835 1.977 74.19-1.65 74.847 0 .658 1.648 13.112 34.198 24.4 37.263 19.452 5.276 78.083-12.92 94.963-15.498 23.742-3.627 88.367-15.833 96.94-15.498 8.573.328 17.147-.663 17.81-4.29M38.682 80.642a7.98 7.98 0 1 0 0 15.963 7.98 7.98 0 1 0 0-15.963M297.414 36.694a7.98 7.98 0 1 0 0-15.963 7.98 7.98 0 1 0 0 15.963M268.054 36.694a7.98 7.98 0 1 0 0-15.963 7.98 7.98 0 1 0 0 15.963M440.056 101.4a7.985 7.985 0 0 0 7.984 7.984c4.409 0 7.979-3.576 7.979-7.984 0-4.409-3.57-7.985-7.979-7.985a7.985 7.985 0 0 0-7.984 7.985M315.593 176.651a7.149 7.149 0 0 0-7.145 7.146 7.149 7.149 0 0 0 7.145 7.146 7.149 7.149 0 0 0 7.145-7.146 7.149 7.149 0 0 0-7.145-7.146M292.247 175.815a7.98 7.98 0 1 0 0 15.963 7.98 7.98 0 1 0 0-15.963M411.655 101.4a7.024 7.024 0 0 0 14.047 0 7.024 7.024 0 1 0-14.047 0"/>
        <g transform="translate(0 79.691)">
            <mask id="b" fill="#fff">
                <use xlink:href="#a"/>
            </mask>
            <path fill="#D4C9B4" d="M7.982.95a7.98 7.98 0 1 0 0 15.963 7.98 7.98 0 1 0 0-15.963" mask="url(#b)"/>
        </g>
        <path fill="#D4C9B4" d="M408.716 12.485c4.504-4.505 20.059-3.071 20.059-1.23 0 1.842-12.49 13.51-14.739 13.51-2.657 0-9.825-7.775-5.32-12.28m43.387-.612c.618 1.224-15.962 16.78-17.192 18.417-1.23 1.637-11.638 1.711-12.279-.204-.408-1.224 19.238-17.397 20.671-18.83 1.434-1.434 8.188-.612 8.8.617m33.568 4.704c0 1.433-14.534 13.917-16.376 14.942-1.842 1.026-20.212.448-20.671-1.23-.612-2.249 17.192-15.962 19.033-16.778 1.842-.822 18.014 1.638 18.014 3.066m16.574 1.025c1.842-.612 7.78.408 8.806 1.23 1.02.816-11.056 11.871-11.668 12.891-.617 1.026-13.248.992-13.712-.408-.408-1.23 14.732-13.1 16.574-13.713m13.922 35.201c0 1.026-15.35 3.69-16.988 3.69-1.637 0-17.61-15.55-16.783-17.193.408-.822 18.421-.618 19.849 0 1.434.612 13.922 12.483 13.922 13.503m11.458-31.313c2.459 0 23.742 1.433 24.971 2.255 1.224.816-2.045 6.545-4.3 7.978-2.25 1.434-35.087.862-35.404-.408-.414-1.637 12.28-9.825 14.733-9.825m37.454 4.709c1.026-.816 39.909 4.504 39.909 5.728 0 1.23-44.056.42-44.21-.612-.203-1.433 3.276-4.3 4.301-5.116M561.6 45.845c-2.453.413-9.417-5.633-9.417-6.545 0-1.638 42.163-.618 42.367 1.02.204 1.637-30.496 5.117-32.95 5.525m-30.088 4.097c-1.428 0-12.942-9.31-12.28-10.642.618-1.23 14.943-.414 16.58-.21 1.638.21 6.347 6.964 6.347 7.984 0 1.026-9.214 2.868-10.647 2.868m-89.025 18.83c-2.867 0-27.017-13.101-28.043-14.535-1.02-1.434 3.276-12.484 4.71-14.937 1.433-2.46 5.116-1.23 6.753-1.026 1.156.142 6.443 6.488 12.897 11.668 6.8 5.462 13.786 8.806 14.58 9.157 4.114 1.853 7.921.21 6.584-4.318-.346-1.179-19.39-14.677-19.118-15.895.408-1.842 23.946-.408 25.374.204.606.26 3.615 5.038 8.392 9.214 5.774 5.043 13.435 9.543 13.1 10.438-.612 1.638-42.367 10.03-45.229 10.03m-26.813 3.066c-4.505-1.02-5.768-5.984-5.525-6.545.612-1.434 1.638 0 6.137 1.637 4.505 1.638 9.417 3.888 9.01 4.704-.414.821-5.117 1.23-9.622.204M332.99 39.3c3.275 0 69.527-4.658 70.813-1.23 2.46 6.55-6.137 22.922-5.32 29.064.82 6.137 6.142 14.325 17.599 13.917 11.463-.408 98.238-20.06 118.705-23.743s76.955-12.28 85.551-14.733c8.596-2.46 56.228-3.695 56.488-7.372.408-5.73-11.463-4.913-28.655-6.55C630.98 27.014 523.33 12.28 504.908 9.413 486.487 6.552 428.361.002 419.358.002c-9.005 0-23.743.408-23.743 11.458 0 11.055 3.275 15.147 2.46 18.014-.822 2.867-40.935-.408-50.76-2.46-9.82-2.045-22.552-6.98-24.966-2.453-3.276 6.142 7.366 14.739 10.641 14.739M549.707 178.816s25.397-7.95 27.448-6.925c2.051 1.026 4.108 6.154 6.414 6.154 2.307 0 10.007-3.332 12.059-3.332 2.05 0 21.549 4.103 21.294 5.9-.26 1.796-66.7-.516-67.215-1.797m23.09 19.499c-2.311 0-10.522-11.288-10.522-11.288 1.286-1.541 14.11-.77 15.65-.516 1.542.261 8.211 9.753 7.95 11.033-.254 1.28-10.771.77-13.077.77m-17.702 5.645c-3.338 0-24.371-15.68-23.09-16.677 2.311-1.796 15.134-.255 16.16.255 1.026.516 12.16 11.81 12.574 14.11.413 2.3-2.312 2.312-5.644 2.312m-25.397 4.357c-9.491-.51-29.295-19.3-28.99-20.008.772-1.797 15.651-1.281 16.932-.255.64.51 4.006 4.97 8.72 8.976 4.715 4.012 10.778 7.57 10.778 8.21 0 1.287 2.051 3.593-7.44 3.077m-27.193 6.415c-3.592 1.286-31.81 5.134-35.913 3.848-37.976-11.866-41.303-28.22-40.277-29.756 1.026-1.541 18.727 0 20.008 0 1.28 0 4.102 3.587 8.466 5.129 4.363 1.54 36.429 18.728 38.735 18.728 2.312 0 8.466-3.077 5.904-4.874-2.567-1.796-30.99-18.626-30.53-19.243.77-1.026 14.364-.255 15.39 0 1.025.26 2.057 4.108 6.16 7.956 4.102 3.847 21.548 11.032 21.803 14.364.255 3.338-6.153 2.567-9.746 3.848m-49.258 7.956c-1.025 1.536-20.008 1.536-23.6-.516-3.593-2.05-4.873-10.007-3.593-10.007 0 0 6.16 3.593 9.497 4.618 3.332 1.032 18.722 4.364 17.696 5.905m-33.862-42.59c-2.306 0-6.409-3.587-5.899-10.518.516-6.924 22.83-13.594 24.116-12.313 1.281 1.28-16.42 22.83-18.217 22.83m44.895-25.907c3.847 1.28-16.676 23.086-18.473 25.653-1.79 2.567-14.55 2.289-13.848-.255 2.05-7.44 28.473-26.684 32.32-25.398m17.187 1.796c1.541-1.286 8.981.51 9.497 1.797.51 1.28-17.192 20.518-17.963 22.575-.765 2.052-16.444 2.21-16.16.51.255-1.535 23.09-23.601 24.626-24.882m20.524 5.9c3.076-2.307 8.726-2.823 9.751-1.797 1.026 1.026-14.88 20.009-16.166 21.034-1.28 1.032-11.027 1.468-11.027-.255 0-2.051 14.365-16.677 17.442-18.983m22.835 1.28c1.79-.254 12.823 1.542 13.078 3.083.26 1.536-8.466 11.543-8.72 13.34-.255 1.796-20.694 1.501-20.263 0 .51-1.797 14.109-16.162 15.905-16.422M637.44 177.02c-14.365-2.307-109.282-20.525-123.391-24.372-14.11-3.848-46.43-8.466-58.234-8.466-11.797 0-47.631 4.624-52.845 20.27-1.54 4.617 2.307 14.88 1.797 16.415-.516 1.542-38.226 0-44.124-.51-5.9-.515-14.88-4.108-17.702-4.108-2.822 0-7.695 1.286-7.95 6.415-.181 3.587 5.128 8.72 10.772 8.72 5.643 0 33.862-2.306 40.021-2.306 6.154 0 24.881-.515 26.678 1.281 1.796 1.796-1.542 17.192-1.026 21.55.51 4.363 3.077 20.78 28.219 20.78 25.141 0 95.943-18.213 106.975-20.01 11.027-1.796 54.386-8.98 75.165-12.313 20.779-3.337 46.43-7.44 51.048-7.44 4.618 0 12.058-.255 12.058-4.873 0-4.619-33.091-8.721-47.461-11.033"/>
    </g>
</svg>
